# xmcd
# 
# Track frame offsets:
#     150
#     15110
#     30322
#     48264
#     61217
#     75524
#     91504
#     104876
#     117579
#     135303
#     154983
#     175983
#     187129
#     196063
#     198701
#     217012
#     227262
#     236725
#     246814
#     259346
# 
# Disc length: 3639
# 
# Revision: 2
# Processed by: cddbd v1.5.2PL0 Copyright (c) Steve Scherf et al.
# Submitted via: BonkEnc v1.0.8
# 
DISCID=0a0e3514
DTITLE=John Lee Hooker - Jack O' Diamonds
DYEAR=2004
DGENRE=Blues
TTITLE0=Guitar Blues Instrumental
TTITLE1=Two White Horses
TTITLE2=Trouble In Mind
TTITLE3=Catfish Blues
TTITLE4=John Henry
TTITLE5=How Long Blues
TTITLE6=Ezekiel Saw The Wheel
TTITLE7=Jack O' Diamonds
TTITLE8=Water Boy
TTITLE9=Six Little Puppies and Twelve Shaggy Hounds
TTITLE10=In The Evening When The Sun Goes Down
TTITLE11=Old Blind Barnabas
TTITLE12=Moses Smote The Water
TTITLE13=Spoken Interlude
TTITLE14=Rabbit On The Log
TTITLE15=Come And See About Me
TTITLE16=33 Blues
TTITLE17=She's Real Gone
TTITLE18=I Wonder
TTITLE19=Untitled Slow Blues
EXTD=
EXTT0=
EXTT1=
EXTT2=
EXTT3=
EXTT4=
EXTT5=
EXTT6=
EXTT7=
EXTT8=
EXTT9=
EXTT10=
EXTT11=
EXTT12=
EXTT13=
EXTT14=
EXTT15=
EXTT16=
EXTT17=
EXTT18=
EXTT19=
PLAYORDER=
